<?xml version="1.0" encoding="utf-8"?>
<!-- Generator: Adobe Illustrator 14.0.0, SVG Export Plug-In . SVG Version: 6.00 Build 43363)  -->
<!DOCTYPE svg PUBLIC "-//W3C//DTD SVG 1.1//EN" "http://www.w3.org/Graphics/SVG/1.1/DTD/svg11.dtd">
<svg version="1.1" id="Layer_1" xmlns="http://www.w3.org/2000/svg" xmlns:xlink="http://www.w3.org/1999/xlink" x="0px" y="0px"
	 width="200px" height="50px" viewBox="0 0 200 50" enable-background="new 0 0 200 50" xml:space="preserve">
<g>
	<path fill="#FFFFFF" d="M104.629-0.121c-13.869,0-25.117,11.248-25.117,25.123c0,13.871,11.248,25.119,25.117,25.119
		c13.878,0,25.124-11.248,25.124-25.119C129.753,11.127,118.507-0.121,104.629-0.121"/>
	<path fill="#075CA9" d="M104.629,1.292c-13.088,0-23.705,10.615-23.705,23.71c0,13.092,10.617,23.707,23.705,23.707
		c13.098,0,23.712-10.615,23.712-23.707C128.341,11.907,117.727,1.292,104.629,1.292"/>
	<path fill="#075CA9" d="M104.629,1.292c-13.088,0-23.705,10.615-23.705,23.71c0,13.092,10.617,23.707,23.705,23.707
		c13.098,0,23.712-10.615,23.712-23.707C128.341,11.907,117.727,1.292,104.629,1.292"/>
	<path fill="#FFFFFF" d="M100.841,17.65h-4.742c-1.049,0-1.895,0.85-1.895,1.896v8.299c0,1.047,0.846,1.896,1.895,1.896h4.742v2.133
		h-7.824c-1.964,0-3.556-1.592-3.556-3.557v-9.245c0-1.964,1.592-3.557,3.556-3.557h7.824V17.65"/>
	<path fill="#FFFFFF" d="M119.328,28.318c0,1.965-1.593,3.557-3.555,3.557h-8.771v10.059c0,0.594-0.618,2.031-4.397,2.031h-0.342
		V19.073h0.342c3.779,0,4.397,1.437,4.397,2.03v8.639h5.689c1.047,0,1.896-0.85,1.896-1.896v-8.299c0-1.047-0.849-1.896-1.896-1.896
		h-10.429V6.037h0.342c3.779,0,4.397,1.436,4.397,2.028v7.451h8.771c1.962,0,3.555,1.593,3.555,3.557V28.318"/>
	<path fill="#075CA9" d="M193.484,29.555h-6.952v-2.027h6.952V29.555z M192.695,33.664h-6.163v-2.027h6.952v1.24
		C193.484,33.313,193.132,33.664,192.695,33.664z M183.466,33.664h-6.951v-2.027h6.951V33.664z M176.513,27.525h6.952v2.029h-6.952
		V27.525z M199,22.28v-7.305h-12.371v-1.534h11.043V10.79H172.42v2.651h10.945v1.534h-12.367v7.305h3.064v-4.988h9.303v7.954h-9.92
		v10.697h10.021v1.408c0,1.643,1.331,2.973,2.972,2.973h0.002h12.363v-2.477h-12.071l-0.001-0.004h0.59
		c-0.435,0-0.788-0.352-0.788-0.789v-1.111h7.046c1.609,0,2.92-1.283,2.968-2.885l0.004-0.004v-7.809h-9.921v-7.954h9.305v4.988H199
		z"/>
	<rect x="188.244" y="18.581" fill="#075CA9" width="6.075" height="2.141"/>
	<rect x="188.244" y="21.954" fill="#075CA9" width="6.075" height="2.107"/>
	<rect x="175.677" y="21.954" fill="#075CA9" width="6.075" height="2.107"/>
	<rect x="175.677" y="18.581" fill="#075CA9" width="6.075" height="2.141"/>
	<path fill="#075CA9" d="M160.9,26.916c0,0.436-0.353,0.787-0.789,0.787h-6.87v-8.718h7.659V26.916 M148.796,27.703h-7.659v-8.718
		h7.659V27.703z M153.241,16.207v-5.941h-4.445v5.941h-11.68v14.275h11.68v10.365h4.445V30.482h8.721l0,0
		c1.634-0.01,2.962-1.336,2.962-2.975V16.207H153.241z"/>
	<path fill="#075CA9" d="M34.666,35.871c-0.589,0-1.069-0.48-1.069-1.07V11.069h-4.98v24.065c0,2.232,1.807,4.041,4.038,4.041
		h14.799v-3.305H34.666"/>
	<path fill="#075CA9" d="M62.293,26.721c-0.41,0-5.717,0-6.496,0V15.443c0-0.592,0.479-1.07,1.07-1.07h5.426
		c0,0,6.206-0.059,6.206,6.178C68.499,26.789,62.735,26.721,62.293,26.721 M62.293,11.069h-8.227c-1.795,0-3.251,1.454-3.251,3.251
		v24.855h4.981v-9.152h6.508c9.054,0,10.932-6.202,10.932-9.473C73.236,17.281,71.348,11.069,62.293,11.069z"/>
	<path fill="#075CA9" d="M22.618,32.297c-1.729,2.193-4.239,3.574-7.031,3.574c-5.214,0-9.44-4.811-9.44-10.741
		c0-5.932,4.227-10.739,9.44-10.739c2.339,0,4.481,0.969,6.131,2.572l2.793-2.793c-2.489-2.095-5.7-3.358-9.206-3.358
		C7.405,10.812,1,17.219,1,25.123c0,7.902,6.405,14.311,14.305,14.311c3.982,0,7.585-1.629,10.18-4.258L22.618,32.297"/>
</g>
</svg>
